<svg width="800" height="600" viewBox="0 0 800 600" fill="none" xmlns="http://www.w3.org/2000/svg">
  <!-- Background -->
  <rect width="800" height="600" fill="#0a0a0a"/>
  
  <!-- Next.js Logo (Top Section) -->
  <g transform="translate(203, 80)">
    <path d="M261.919 0.0330722H330.547V12.7H303.323V79.339H289.71V12.7H261.919V0.0330722Z" fill="white"/>
    <path d="M149.052 0.0330722V12.7H94.0421V33.0772H138.281V45.7441H94.0421V66.6721H149.052V79.339H80.43V12.7H80.4243V0.0330722H149.052Z" fill="white"/>
    <path d="M183.32 0.0661486H165.506L229.312 79.3721H247.178L215.271 39.7464L247.127 0.126654L229.312 0.154184L206.352 28.6697L183.32 0.0661486Z" fill="white"/>
    <path d="M201.6 56.7148L192.679 45.6229L165.455 79.4326H183.32L201.6 56.7148Z" fill="white"/>
    <path fill-rule="evenodd" clip-rule="evenodd" d="M80.907 79.339L17.0151 0H0V79.3059H13.6121V16.9516L63.8067 79.339H80.907Z" fill="white"/>
    <path d="M333.607 78.8546C332.61 78.8546 331.762 78.5093 331.052 77.8186C330.342 77.1279 329.991 76.2917 330 75.3011C329.991 74.3377 330.342 73.5106 331.052 72.8199C331.762 72.1292 332.61 71.7838 333.607 71.7838C334.566 71.7838 335.405 72.1292 336.115 72.8199C336.835 73.5106 337.194 74.3377 337.204 75.3011C337.194 75.9554 337.028 76.5552 336.696 77.0914C336.355 77.6368 335.922 78.064 335.377 78.373C334.842 78.6911 334.252 78.8546 333.607 78.8546Z" fill="white"/>
    <path d="M356.84 45.4453H362.872V68.6846C362.863 70.8204 362.401 72.6472 361.498 74.1832C360.585 75.7191 359.321 76.8914 357.698 77.7185C356.084 78.5364 354.193 78.9546 352.044 78.9546C350.079 78.9546 348.318 78.6001 346.75 77.9094C345.182 77.2187 343.937 76.1826 343.024 74.8193C342.101 73.456 341.649 71.7565 341.649 69.7207H347.691C347.7 70.6114 347.903 71.3838 348.29 72.0291C348.677 72.6744 349.212 73.1651 349.895 73.5105C350.586 73.8559 351.38 74.0286 352.274 74.0286C353.243 74.0286 354.073 73.8286 354.746 73.4196C355.419 73.0197 355.936 72.4199 356.296 71.6201C356.646 70.8295 356.831 69.8479 356.84 68.6846V45.4453Z" fill="white"/>
    <path d="M387.691 54.5338C387.544 53.1251 386.898 52.0254 385.773 51.2438C384.638 50.4531 383.172 50.0623 381.373 50.0623C380.11 50.0623 379.022 50.2532 378.118 50.6258C377.214 51.0075 376.513 51.5164 376.033 52.1617C375.554 52.807 375.314 53.5432 375.295 54.3703C375.295 55.061 375.461 55.6608 375.784 56.1607C376.107 56.6696 376.54 57.0968 377.103 57.4422C377.656 57.7966 378.274 58.0874 378.948 58.3237C379.63 58.56 380.313 58.76 380.995 58.9236L384.14 59.6961C385.404 59.9869 386.631 60.3778 387.802 60.8776C388.973 61.3684 390.034 61.9955 390.965 62.7498C391.897 63.5042 392.635 64.413 393.179 65.4764C393.723 66.5397 394 67.7848 394 69.2208C394 71.1566 393.502 72.8562 392.496 74.3285C391.491 75.7917 390.043 76.9369 388.143 77.764C386.252 78.582 383.965 79 381.272 79C378.671 79 376.402 78.6002 374.493 77.8004C372.575 77.0097 371.08 75.8463 370.001 74.3194C368.922 72.7926 368.341 70.9294 368.258 68.7391H374.235C374.318 69.8842 374.687 70.8386 375.314 71.6111C375.95 72.3745 376.78 72.938 377.795 73.3197C378.819 73.6923 379.962 73.8832 381.226 73.8832C382.545 73.8832 383.707 73.6832 384.712 73.2924C385.708 72.9016 386.492 72.3564 387.055 71.6475C387.627 70.9476 387.913 70.1206 387.922 69.1754C387.913 68.312 387.654 67.5939 387.156 67.0304C386.649 66.467 385.948 65.9944 385.053 65.6127C384.15 65.231 383.098 64.8856 381.899 64.5857L378.081 63.6223C375.323 62.9225 373.137 61.8592 371.541 60.4323C369.937 59.0054 369.143 57.115 369.143 54.7429C369.143 52.798 369.678 51.0894 370.758 49.6261C371.827 48.1629 373.294 47.0268 375.148 46.2179C377.011 45.4 379.114 45 381.456 45C383.836 45 385.92 45.4 387.719 46.2179C389.517 47.0268 390.929 48.1538 391.952 49.5897C392.976 51.0257 393.511 52.6707 393.539 54.5338H387.691Z" fill="white"/>
  </g>

  <!-- VS Text (Middle Section) -->
  <g transform="translate(400, 300)">
    <circle cx="0" cy="0" r="60" fill="#ff8d2f" opacity="0.2"/>
    <text x="0" y="0" text-anchor="middle" dominant-baseline="middle" font-family="Arial, sans-serif" font-size="48" font-weight="bold" fill="#ff8d2f">VS</text>
  </g>

  <!-- Divider Lines -->
  <line x1="100" y1="240" x2="700" y2="240" stroke="#ff8d2f" stroke-width="2" opacity="0.3"/>
  <line x1="100" y1="380" x2="700" y2="380" stroke="#ff8d2f" stroke-width="2" opacity="0.3"/>

  <!-- Astro Logo (Bottom Section) -->
  <g transform="translate(170, 420) scale(0.8)">
    <path d="M65.7846 121.175C61.2669 117.045 59.9481 108.368 61.8303 102.082C65.0939 106.045 69.6158 107.301 74.2997 108.009C81.5305 109.103 88.6318 108.694 95.349 105.389C96.1174 105.011 96.8275 104.507 97.6672 103.998C98.2974 105.826 98.4615 107.672 98.2413 109.551C97.706 114.127 95.4288 117.662 91.8069 120.341C90.3586 121.413 88.8261 122.371 87.3303 123.382C82.7349 126.487 81.4917 130.129 83.2184 135.427C83.2594 135.556 83.2961 135.685 83.389 136C81.0427 134.95 79.3289 133.421 78.023 131.411C76.6438 129.289 75.9876 126.942 75.9531 124.403C75.9358 123.167 75.9358 121.92 75.7696 120.702C75.3638 117.732 73.9694 116.402 71.3426 116.325C68.6467 116.247 66.5141 117.913 65.9486 120.538C65.9054 120.739 65.8428 120.938 65.7803 121.172L65.7846 121.175Z" fill="white"/>
    <path d="M65.7846 121.175C61.2669 117.045 59.9481 108.368 61.8303 102.082C65.0939 106.045 69.6158 107.301 74.2997 108.009C81.5305 109.103 88.6318 108.694 95.349 105.389C96.1174 105.011 96.8275 104.507 97.6672 103.998C98.2974 105.826 98.4615 107.672 98.2413 109.551C97.706 114.127 95.4288 117.662 91.8069 120.341C90.3586 121.413 88.8261 122.371 87.3303 123.382C82.7349 126.487 81.4917 130.129 83.2184 135.427C83.2594 135.556 83.2961 135.685 83.389 136C81.0427 134.95 79.3289 133.421 78.023 131.411C76.6438 129.289 75.9876 126.942 75.9531 124.403C75.9358 123.167 75.9358 121.92 75.7696 120.702C75.3638 117.732 73.9694 116.402 71.3426 116.325C68.6467 116.247 66.5141 117.913 65.9486 120.538C65.9054 120.739 65.8428 120.938 65.7803 121.172L65.7846 121.175Z" fill="url(#paint0_linear_astro)"/>
    <path d="M40 101.034C40 101.034 53.3775 94.5177 66.7924 94.5177L76.9068 63.2155C77.2855 61.7017 78.3911 60.6729 79.6393 60.6729C80.8875 60.6729 81.9932 61.7017 82.3719 63.2155L92.4862 94.5177C108.374 94.5177 119.279 101.034 119.279 101.034C119.279 101.034 96.5558 39.133 96.5114 39.0088C95.8592 37.1787 94.7583 36 93.274 36H66.007C64.5227 36 63.4662 37.1787 62.7696 39.0088C62.7205 39.1307 40 101.034 40 101.034Z" fill="white"/>
    <path d="M181.043 81.1227C181.043 86.6079 174.22 89.8838 164.773 89.8838C158.624 89.8838 156.45 88.3601 156.45 85.1604C156.45 81.8083 159.149 80.2085 165.297 80.2085C170.846 80.2085 175.569 80.2846 181.043 80.9703V81.1227ZM181.118 74.3423C177.744 73.5805 172.645 73.1234 166.572 73.1234C148.877 73.1234 140.555 77.3135 140.555 87.065C140.555 97.1975 146.253 101.083 159.449 101.083C170.621 101.083 178.193 98.2641 180.968 91.3313H181.417C181.342 93.0074 181.268 94.6834 181.268 95.9785C181.268 99.5592 181.867 99.8639 184.791 99.8639H198.587C197.837 97.7308 197.388 91.7122 197.388 86.5317C197.388 80.9703 197.612 76.7802 197.612 71.1426C197.612 59.6388 190.715 52.3251 169.121 52.3251C159.824 52.3251 149.477 53.925 141.605 56.2867C142.354 59.4102 143.404 65.7335 143.929 69.8474C150.752 66.6477 160.424 65.2764 167.922 65.2764C178.268 65.2764 181.118 67.6381 181.118 72.4377V74.3423Z" fill="white"/>
    <path d="M218.971 84.3224C217.097 84.5509 214.547 84.5509 211.923 84.5509C209.149 84.5509 206.6 84.4748 204.875 84.2462C204.875 84.8557 204.8 85.5413 204.8 86.1508C204.8 95.6738 211.024 101.235 232.917 101.235C253.535 101.235 260.208 95.75 260.208 86.0746C260.208 76.9325 255.785 72.4377 236.216 71.4473C220.995 70.7616 219.646 69.0856 219.646 67.181C219.646 64.9717 221.595 63.8289 231.792 63.8289C242.364 63.8289 245.213 65.2764 245.213 68.3238V69.0094C246.713 68.9332 249.412 68.8571 252.186 68.8571C254.81 68.8571 257.659 68.9332 259.309 69.0856C259.309 68.3999 259.384 67.7905 259.384 67.2572C259.384 56.0581 250.086 52.4013 232.092 52.4013C211.848 52.4013 205.025 57.3533 205.025 67.0286C205.025 75.7136 210.499 81.1227 229.918 81.9607C244.238 82.4178 245.813 84.0177 245.813 86.227C245.813 88.5887 243.489 89.6553 233.442 89.6553C221.895 89.6553 218.971 88.0554 218.971 84.7795V84.3224Z" fill="white"/>
    <path d="M284.955 44.1734C279.482 49.2778 269.66 54.3821 264.187 55.7534C264.262 58.5722 264.262 63.7527 264.262 66.5715L269.285 66.6477C269.21 72.0568 269.135 78.6086 269.135 82.9511C269.135 93.0835 274.458 100.702 291.028 100.702C298.001 100.702 302.65 99.9401 308.423 98.7212C307.823 94.9881 307.148 89.2743 306.923 84.9319C303.475 86.0746 299.126 86.6841 294.327 86.6841C287.654 86.6841 284.955 84.8557 284.955 79.599C284.955 75.028 284.955 70.7616 285.03 66.8001C293.578 66.8763 302.125 67.0286 307.148 67.181C307.073 63.2194 307.223 57.5056 307.448 53.6964C300.176 53.8488 292.003 53.925 285.255 53.925C285.33 50.5729 285.405 47.3732 285.48 44.1734H284.955Z" fill="white"/>
    <path d="M329.736 64.286C329.811 60.3244 329.886 56.9724 329.961 53.6964H314.89C315.115 60.2483 315.115 66.9525 315.115 76.7802C315.115 86.6079 315.04 93.3883 314.89 99.8639H332.135C331.835 95.2929 331.76 87.5983 331.76 81.0465C331.76 70.6855 335.959 67.7143 345.481 67.7143C349.905 67.7143 353.054 68.2476 355.828 69.238C355.903 65.3526 356.653 57.8104 357.102 54.4583C354.253 53.6203 351.104 53.087 347.28 53.087C339.108 53.0108 333.11 56.3629 330.336 64.3622L329.736 64.286Z" fill="white"/>
    <path d="M404.808 76.4754C404.808 84.7795 398.81 88.6649 389.363 88.6649C379.991 88.6649 373.993 85.008 373.993 76.4754C373.993 67.9428 380.066 64.7431 389.363 64.7431C398.735 64.7431 404.808 68.1714 404.808 76.4754ZM420.478 76.0945C420.478 59.5626 407.582 52.1728 389.363 52.1728C371.069 52.1728 358.623 59.5626 358.623 76.0945C358.623 92.5503 370.244 101.388 389.288 101.388C408.482 101.388 420.478 92.5503 420.478 76.0945Z" fill="white"/>
    <defs>
      <linearGradient id="paint0_linear_astro" x1="61.0003" y1="136" x2="104.622" y2="115.39" gradientUnits="userSpaceOnUse">
        <stop stop-color="#D83333"/>
        <stop offset="1" stop-color="#F041FF"/>
      </linearGradient>
    </defs>
  </g>
</svg>